<?xml version="1.0" encoding="UTF-8" standalone="no"?>
<svg
   width="512"
   height="512"
   viewBox="74.634 0 104.86691 104.8576"
   version="1.1"
   id="svg5"
   sodipodi:docname="html.svg"
   inkscape:version="1.3 (0e150ed6c4, 2023-07-21)"
   xmlns:inkscape="http://www.inkscape.org/namespaces/inkscape"
   xmlns:sodipodi="http://sodipodi.sourceforge.net/DTD/sodipodi-0.dtd"
   xmlns="http://www.w3.org/2000/svg"
   xmlns:svg="http://www.w3.org/2000/svg">
  <defs
     id="defs5" />
  <sodipodi:namedview
     id="namedview5"
     pagecolor="#ffffff"
     bordercolor="#000000"
     borderopacity="0.25"
     inkscape:showpageshadow="2"
     inkscape:pageopacity="0.0"
     inkscape:pagecheckerboard="0"
     inkscape:deskcolor="#d1d1d1"
     inkscape:zoom="0.9198045"
     inkscape:cx="310.93564"
     inkscape:cy="373.44892"
     inkscape:window-width="1920"
     inkscape:window-height="1009"
     inkscape:window-x="1912"
     inkscape:window-y="-8"
     inkscape:window-maximized="1"
     inkscape:current-layer="svg5" />
  <g
     id="g4">
    <path
       d="M 90.135531,93.396171 81.918009,1.224253 H 172.2169 l -8.22648,92.15748 -36.97835,10.251617 z"
       id="path1"
       style="fill:#151515;fill-opacity:1;stroke-width:0.24894" />
    <path
       id="path4"
       style="fill:#f0f0f0;fill-opacity:1;stroke-width:0.24894"
       d="M 98.720938 20.065127 L 98.991762 23.098196 L 101.77001 54.250162 L 127.02865 54.250162 L 127.06746 54.250162 L 140.94869 54.250162 L 139.63617 68.911463 L 127.02865 72.314565 L 127.02865 72.315366 L 127.01785 72.318166 L 114.42793 68.918664 L 113.62306 59.902664 L 102.27525 59.902664 L 103.85899 77.652239 L 127.01545 84.08081 L 127.06746 84.066409 L 127.06746 84.064409 L 150.20311 77.652239 L 150.37312 75.74247 L 153.02976 45.981428 L 153.30538 42.945958 L 150.25911 42.945958 L 127.06746 42.945958 L 127.02865 42.945958 L 112.10853 42.945958 L 111.07524 31.37013 L 127.02865 31.37013 L 127.06746 31.37013 L 154.33388 31.37013 L 154.5607 28.829105 L 155.07594 23.098196 L 155.34637 20.065127 L 127.06746 20.065127 L 127.02865 20.065127 L 98.720938 20.065127 z " />
  </g>
</svg>
