<?xml version="1.0" encoding="UTF-8" standalone="no"?>
<svg
   height="512"
   viewBox="8.738 -5.0362283 3.5757925 8.0703887"
   width="512"
   version="1.1"
   id="svg3"
   sodipodi:docname="mongodb.svg"
   inkscape:version="1.3 (0e150ed6c4, 2023-07-21)"
   xmlns:inkscape="http://www.inkscape.org/namespaces/inkscape"
   xmlns:sodipodi="http://sodipodi.sourceforge.net/DTD/sodipodi-0.dtd"
   xmlns="http://www.w3.org/2000/svg"
   xmlns:svg="http://www.w3.org/2000/svg">
  <defs
     id="defs3" />
  <sodipodi:namedview
     id="namedview3"
     pagecolor="#ffffff"
     bordercolor="#000000"
     borderopacity="0.25"
     inkscape:showpageshadow="2"
     inkscape:pageopacity="0.0"
     inkscape:pagecheckerboard="0"
     inkscape:deskcolor="#d1d1d1"
     inkscape:zoom="0.3252"
     inkscape:cx="1248.4625"
     inkscape:cy="1250"
     inkscape:window-width="1920"
     inkscape:window-height="1009"
     inkscape:window-x="1912"
     inkscape:window-y="-8"
     inkscape:window-maximized="1"
     inkscape:current-layer="svg3" />
  <path
     id="path1"
     d="m 10.494761,-4.9409831 c -0.0065,-0.0032 -0.01293,0.0057 -0.01939,0.01198 0.0042,0.0862 -0.02586,0.163032 -0.0729,0.23642 -0.05172,0.0729 -0.120174,0.128801 -0.188883,0.188891 -0.381719,0.330494 -0.682171,0.729699 -0.922776,1.176187 -0.320151,0.600899 -0.485157,1.244897 -0.531948,1.922879 -0.02142,0.244546 0.07733,1.10747798 0.154409,1.35645698 0.210315,0.660989 0.588097,1.21485202 1.077436,1.69557202 0.12018,0.115747 0.248738,0.223121 0.381723,0.326309 7.3e-5,0 1.02e-4,-4.6e-5 1.75e-4,-4.6e-5 9.3e-5,0.0073 4.94e-4,0.01494 0.004,0.02566 0.07733,0.227554 0.0985,0.459297 0.111557,0.69547 v 0.0862 c 0,0.102941 -0.0042,0.08127 0.08127,0.115743 0.03448,0.01281 0.0729,0.01724 0.107379,0.04285 0.02586,0 0.03004,-0.02142 0.03004,-0.03866 l -0.01279,-0.141608 v -0.395015 c -0.0042,-0.06895 0.0086,-0.137423 0.01724,-0.201946 l 2.5e-4,-2.42e-4 c 0.0086,-0.09851 0.0559,-0.180274 0.107372,-0.261789 -3.18e-4,-1.31e-4 -6.29e-4,-3.07e-4 -9.43e-4,-4.4e-4 0.0024,1.32e-4 0.0046,6.74e-4 0.0071,6.74e-4 a 3.1276336,3.1276336 0 0 0 0.386644,-0.330494 c 0.735855,-0.75974302 1.100831,-1.67390002 1.083592,-2.738525 -0.0042,-0.356091 -0.06007,-0.708258 -0.163015,-1.051559 -0.17165,-0.561988 -0.412007,-1.08162 -0.768359,-1.549533 a 5.5179338,5.5179338 0 0 0 -0.493524,-0.558051 c -0.06034,-0.06009 -0.11156,-0.124615 -0.158844,-0.197511 l -0.210211,-0.394817 -1.06e-4,-0.01325 c -0.0022,-0.0043 -0.0043,-0.0067 -0.0065,-0.0078 z"
     style="fill:#151515;fill-opacity:1;stroke-width:0.246271" />
</svg>
